
        <svg xmlns="http://www.w3.org/2000/svg" xmlns:xlink="http://www.w3.org/1999/xlink" version="1.1" width="3187.5" 
        height="2100.082615402555" viewBox="0 0 3187.5 2100.082615402555">
			
			<g transform="scale(9.375) translate(10, 10)">
				<defs id="SvgjsDefs1491"></defs><g id="SvgjsG1492" featureKey="symbolFeature-0" transform="matrix(1.5141444680975322,0,0,1.5141444680975322,84.87155517590817,-21.70677576466254)" fill="#0d3934"><g xmlns="http://www.w3.org/2000/svg"><g><path d="M50.023,52.662c8.141,0,20.761-8.777,13.741-23.499c-0.393-0.824,0.732-1.517,1.283-0.79    c11.625,15.355-1.063,32.072-15.024,32.072h-0.045c-13.961,0-26.649-16.717-15.024-32.072c0.551-0.728,1.676-0.034,1.283,0.79    C29.217,43.886,42.063,52.662,50.023,52.662L50.023,52.662z"></path><path d="M60.879,65.505c9.612-4.494,19.223-0.315,19.223,9.098c0,6.348-5.974,14.285-15.584,9.534    c-0.664-0.328-0.323-1.321,0.405-1.183c5.695,1.082,9.701-2.839,9.701-7.259c0-6.563-7.359-6.012-11.733-3.508L39.121,83.852    c-9.612,4.494-19.223,0.315-19.223-9.098c0-6.348,5.974-14.285,15.584-9.534c0.664,0.328,0.323,1.321-0.405,1.183    c-5.695-1.082-9.701,2.839-9.701,7.259c0,6.563,7.359,6.012,11.733,3.508l23.771-11.667L60.879,65.505z"></path><path d="M50,14.336c-9.557,0-11.465,14.069-5.809,19.744c0.591,0.593,1.536-0.166,1.086-0.872    C42.275,28.49,44.737,20.636,50,20.645c5.263-0.009,7.725,7.845,4.723,12.562c-0.45,0.707,0.495,1.466,1.086,0.872    C61.465,28.405,59.557,14.336,50,14.336z"></path></g></g></g><g id="SvgjsG1493" featureKey="nameFeature-0" transform="matrix(1.656883179082659,0,0,1.656883179082659,-0.3235910343913837,109.97506069860097)" fill="#0d3934"><path d="M21.836 11.289000000000001 l7.9297 0 l-10.645 28.711 l-8.3594 0 l-10.566 -28.711 l7.9297 0 l6.8555 20.176 z M51.91583984375 40 l-1.8555 -5.3125 l-11.484 0 l-1.8359 5.3125 l-7.5586 0 l10.566 -28.711 l9.1602 0 l10.566 28.711 l-7.5586 0 z M40.70483984375 28.555 l7.2266 0 l-3.6133 -10.391 z M81.7023359375 11.289000000000001 l7.4414 0 l0 28.711 l-8.8477 0 l-10.957 -18.633 l0 18.633 l-7.4414 0 l0 -28.711 l8.75 0 l11.055 18.535 l0 -18.535 z M111.99705078125 17.754 l-10 0 l0 4.6875 l8.9063 0 l0 6.4063 l-8.9063 0 l0 4.6289 l10 0 l0 6.5234 l-17.441 0 l0 -28.711 l17.441 0 l0 6.4648 z M126.587828125 40.39063 c-6.2891 0 -11.406 -3.0273 -12.207 -8.7891 l7.7148 -1.7578 c0.21484 3.125 2.168 4.5898 4.8047 4.5898 c1.9141 0 3.0859 -0.91797 3.0859 -2.5586 c0 -2.1484 -2.7539 -2.9492 -5.957 -4.043 c-4.043 -1.3477 -8.5742 -3.0273 -8.5742 -8.3203 c0 -5.3516 4.3359 -8.6328 10.527 -8.6328 c5.0391 0 10.527 1.9922 11.719 7.9297 l-7.1484 1.7578 c-0.41016 -2.5977 -1.7773 -3.7305 -4.082 -3.7305 c-2.0508 0 -3.4961 0.80078 -3.4961 2.4805 c0 1.6016 2.5781 2.2461 5.5273 3.2031 c4.1211 1.3672 9.1992 3.2422 9.1992 8.9258 c0 6.3086 -5.3125 8.9453 -11.113 8.9453 z M151.29632421875 40.39063 c-6.2891 0 -11.406 -3.0273 -12.207 -8.7891 l7.7148 -1.7578 c0.21484 3.125 2.168 4.5898 4.8047 4.5898 c1.9141 0 3.0859 -0.91797 3.0859 -2.5586 c0 -2.1484 -2.7539 -2.9492 -5.957 -4.043 c-4.043 -1.3477 -8.5742 -3.0273 -8.5742 -8.3203 c0 -5.3516 4.3359 -8.6328 10.527 -8.6328 c5.0391 0 10.527 1.9922 11.719 7.9297 l-7.1484 1.7578 c-0.41016 -2.5977 -1.7773 -3.7305 -4.082 -3.7305 c-2.0508 0 -3.4961 0.80078 -3.4961 2.4805 c0 1.6016 2.5781 2.2461 5.5273 3.2031 c4.1211 1.3672 9.1992 3.2422 9.1992 8.9258 c0 6.3086 -5.3125 8.9453 -11.113 8.9453 z M185.7708203125 40 l-1.8555 -5.3125 l-11.484 0 l-1.8359 5.3125 l-7.5586 0 l10.566 -28.711 l9.1602 0 l10.566 28.711 l-7.5586 0 z M174.5598203125 28.555 l7.2266 0 l-3.6133 -10.391 z"></path></g><g id="SvgjsG1494" featureKey="sloganFeature-0" transform="matrix(1.172859853685572,0,0,1.172859853685572,47.49602224077733,180.32254384203725)" fill="#0d3934"><path d="M4.1211 20 l-3.6914 -14.111 l3.0469 0 l2.7539 10.684 l3.1543 -10.684 l2.4707 0 l3.1348 10.684 l2.7832 -10.684 l3.0371 0 l-3.6914 14.111 l-3.7695 0 l-2.7344 -8.7207 l-2.7246 8.7207 l-3.7695 0 z M33.5207421875 8.467 l-5.2344 0 l0 3.2031 l4.6387 0 l0 2.5488 l-4.6387 0 l0 3.1934 l5.2344 0 l0 2.5879 l-8.1836 0 l0 -14.111 l8.1836 0 l0 2.5781 z M46.386721875 12.5488 c1.5918 0.43945 2.6563 1.4844 2.6563 3.4961 c0 2.3828 -1.4453 3.9551 -4.4238 3.9551 l-5.8105 0 l0 -14.111 l4.5703 0 c3.0469 0 4.6484 1.4648 4.6484 3.8672 c0 1.2402 -0.53711 2.2559 -1.6406 2.793 z M43.408221875 8.32 l-1.7773 0 l0 3.3203 l1.9043 0 c1.25 0 1.7969 -0.74219 1.7969 -1.6992 c0 -0.9375 -0.61523 -1.6211 -1.9238 -1.6211 z M44.072221875 17.4902 c1.582 0 2.1289 -0.84961 2.1289 -1.7676 c0 -0.9375 -0.53711 -1.8262 -2.1875 -1.8262 l-2.3828 0 l0 3.5938 l2.4414 0 z M61.386746875 20 l0 -14.111 l5.1074 0 c4.502 0 6.7285 2.832 6.7285 7.0508 c0 4.2285 -2.2266 7.0605 -6.7285 7.0605 l-5.1074 0 z M64.316446875 17.4121 l2.0313 0 c2.5977 0 3.7891 -1.6211 3.7891 -4.4727 s-1.1914 -4.4727 -3.7891 -4.4727 l-2.0313 0 l0 8.9453 z M86.4211328125 8.467 l-5.2344 0 l0 3.2031 l4.6387 0 l0 2.5488 l-4.6387 0 l0 3.1934 l5.2344 0 l0 2.5879 l-8.1836 0 l0 -14.111 l8.1836 0 l0 2.5781 z M100.6838125 5.888999999999999 l3.1152 0 l-5.2148 14.111 l-3.2227 0 l-5.1855 -14.111 l3.1055 0 l3.7012 10.693 z M116.3723046875 8.467 l-5.2344 0 l0 3.2031 l4.6387 0 l0 2.5488 l-4.6387 0 l0 3.1934 l5.2344 0 l0 2.5879 l-8.1836 0 l0 -14.111 l8.1836 0 l0 2.5781 z M124.589884375 17.4121 l4.4238 0 l0 2.5879 l-7.3535 0 l0 -14.111 l2.9297 0 l0 11.523 z M139.7705359375 20.19531 c-4.1504 0 -7.2168 -2.832 -7.2168 -7.2559 c0 -4.4336 3.0664 -7.2461 7.2168 -7.2461 c4.1406 0 7.207 2.8125 7.207 7.2461 c0 4.4238 -3.0664 7.2559 -7.207 7.2559 z M139.7705359375 17.5098 c2.4316 0 4.2969 -1.709 4.2969 -4.5703 c0 -2.8516 -1.8652 -4.5508 -4.2969 -4.5508 s-4.2969 1.6992 -4.2969 4.5508 c0 2.8613 1.8652 4.5703 4.2969 4.5703 z M157.8124875 5.888999999999999 c2.7637 0 4.4824 2.0508 4.4824 4.5605 c0 2.5684 -1.7188 4.4922 -4.4824 4.4922 l-2.9395 0 l0 5.0586 l-2.9297 0 l0 -14.111 l5.8691 0 z M157.3241875 12.4902 c1.4648 0 2.1484 -0.81055 2.1484 -2.0801 c0 -1.2207 -0.68359 -2.0703 -2.1484 -2.0703 l-2.4512 0 l0 4.1504 l2.4512 0 z M175.2101953125 8.467 l-5.2344 0 l0 3.2031 l4.6387 0 l0 2.5488 l-4.6387 0 l0 3.1934 l5.2344 0 l0 2.5879 l-8.1836 0 l0 -14.111 l8.1836 0 l0 2.5781 z M187.949175 20 l-3.6719 -6.2109 l-0.84961 0 l0 6.2109 l-2.9297 0 l0 -14.111 l5.1172 0 c3.1934 0 4.541 1.8848 4.541 4.2188 c0 1.8945 -1.0742 3.125 -2.9883 3.5352 l4.248 6.3574 l-3.4668 0 z M183.427775 8.32 l0 3.3691 l1.7285 0 c1.5625 0 2.1973 -0.66406 2.1973 -1.6797 c0 -1.0059 -0.63477 -1.6895 -2.1973 -1.6895 l-1.7285 0 z"></path></g>
			</g>
		</svg>
	