<!-- Generated by IcoMoon.io -->
<svg version="1.1" xmlns="http://www.w3.org/2000/svg" width="832" height="1024" viewBox="0 0 832 1024">
<title></title>
<g id="icomoon-ignore">
</g>
<path fill="#000" d="M416.319 548.792c112.506 0 286.911-121.295 189.897-324.749-5.431-11.387 10.117-20.965 17.73-10.918 160.654 212.201-14.691 443.225-207.627 443.225h-0.621c-192.936 0-368.281-231.023-207.627-443.225 7.615-10.061 23.161-0.469 17.73 10.918-97.014 203.468 80.514 324.749 190.518 324.749v0z"></path>
<path fill="#000" d="M566.345 726.278c132.835-62.105 265.657-4.353 265.657 125.731 0 87.728-82.558 197.414-215.366 131.757-9.176-4.532-4.464-18.255 5.597-16.348 78.703 14.953 134.065-39.234 134.065-100.316 0-90.699-101.7-83.084-162.146-48.48l-328.495 161.207c-132.835 62.105-265.657 4.353-265.657-125.731 0-87.728 82.558-197.414 215.366-131.757 9.176 4.532 4.464 18.255-5.597 16.348-78.703-14.953-134.065 39.234-134.065 100.316 0 90.699 101.7 83.084 162.146 48.48l328.495-161.207z"></path>
<path fill="#000" d="M416.001 19.138c-132.075 0-158.442 194.429-80.278 272.857 8.168 8.194 21.226-2.294 15.009-12.052-41.486-65.202-7.463-173.74 65.27-173.617 72.733-0.124 106.758 108.415 65.27 173.603-6.219 9.771 6.84 20.26 15.009 12.052 78.164-78.413 51.796-272.843-80.278-272.843z"></path>
</svg>
